{"title":"Down - IV - Part I [24-bit 44.1kHz flac] MC Lurken","uid":11746714,"size":376785223,"categoryP":"audio","categoryS":"flac","magnet":"?xt=urn:btih:cf1de7889dd6622b7afcb3e29310bacd20ed384d&amp;dn=Down+-+IV+-+Part+I+%5B24-bit+44.1kHz+flac%5D+MC+Lurken&amp;tr=udp%3A%2F%2Ftracker.openbittorrent.com%3A80&amp;tr=udp%3A%2F%2Fopen.demonii.com%3A1337&amp;tr=udp%3A%2F%2Ftracker.coppersurfer.tk%3A6969&amp;tr=udp%3A%2F%2Fexodus.desync.com%3A6969","seeders":2,"leechers":0,"uploader":"beavis39","files":10,"time":1426063955,"description":"Down - IV - Part I [24-bit 44.1kHz flac] MC Lurken\n\n\n\n1 - Levitation\n2 - Witchtripper\n3 - Open Coffins\n4 - The Curse Is A Lie\n5 - This Work Is Timeless\n6 - Misfortune Teller\n\n\n\nfoobar2000 1.3.7 / Dynamic Range Meter 1.1.1\nlog date: 2015-03-11 02:21:34\n\n--------------------------------------------------------------------------------\nAnalyzed: Down / IV - Part I\n--------------------------------------------------------------------------------\n\nDR         Peak         RMS     Duration Track\n--------------------------------------------------------------------------------\nDR7       -0.01 dB    -8.58 dB      5:00 01-Levitation\nDR7       -0.01 dB    -8.13 dB      3:49 02-Witchtripper\nDR7       -0.01 dB    -7.66 dB      5:44 03-Open Coffins\nDR6       -0.01 dB    -8.09 dB      6:01 04-The Curse Is A Lie\nDR7       -0.01 dB    -7.93 dB      3:43 05-This Work Is Timeless\nDR7       -0.01 dB    -9.71 dB      9:05 06-Misfortune Teller\n--------------------------------------------------------------------------------\n\nNumber of tracks:  6\nOfficial DR value: DR7\n\nSamplerate:        44100 Hz\nChannels:          2\nBits per sample:   24\nBitrate:           1399 kbps\nCodec:             FLAC","torrent":{"xt":"urn:btih:cf1de7889dd6622b7afcb3e29310bacd20ed384d","amp;dn":"Down+-+IV+-+Part+I+%5B24-bit+44.1kHz+flac%5D+MC+Lurken","amp;tr":["udp%3A%2F%2Ftracker.openbittorrent.com%3A80","udp%3A%2F%2Fopen.demonii.com%3A1337","udp%3A%2F%2Ftracker.coppersurfer.tk%3A6969","udp%3A%2F%2Fexodus.desync.com%3A6969"],"infoHash":"cf1de7889dd6622b7afcb3e29310bacd20ed384d","infoHashBuffer":{"type":"Buffer","data":[207,29,231,136,157,214,98,43,122,252,179,226,147,16,186,205,32,237,56,77]},"announce":[],"urlList":[]}}